<svg width="44" height="42" viewBox="0 0 44 42" fill="none" xmlns="http://www.w3.org/2000/svg">
<g id="Group 49">
<g id="Group">
<path id="Vector" d="M20.2921 11.7442C21.052 10.3782 21.432 9.69824 22 9.69824C22.568 9.69824 22.948 10.3782 23.7079 11.7442L23.9039 12.0961C24.1199 12.4841 24.2279 12.6761 24.3959 12.8041C24.5659 12.9321 24.7759 12.9801 25.1959 13.0741L25.5759 13.1621C27.0518 13.4961 27.7898 13.6621 27.9658 14.2261C28.1418 14.792 27.6378 15.38 26.6318 16.556L26.3719 16.86C26.0859 17.194 25.9419 17.3599 25.8779 17.5679C25.8139 17.7759 25.8359 17.9979 25.8779 18.4439L25.9179 18.8499C26.0699 20.4198 26.1459 21.2058 25.6879 21.5538C25.2279 21.9018 24.5359 21.5838 23.154 20.9478L22.798 20.7838C22.404 20.6038 22.208 20.5138 22 20.5138C21.792 20.5138 21.596 20.6038 21.202 20.7838L20.846 20.9478C19.4641 21.5858 18.7721 21.9018 18.3121 21.5538C17.8521 21.2058 17.9301 20.4198 18.0821 18.8499L18.1221 18.4439C18.1641 17.9979 18.1861 17.7759 18.1221 17.5679C18.0581 17.3619 17.9141 17.194 17.6281 16.86L17.3681 16.556C16.3622 15.38 15.8582 14.792 16.0342 14.2261C16.2102 13.6621 16.9482 13.4961 18.4241 13.1621L18.8041 13.0741C19.2241 12.9801 19.4341 12.9341 19.6041 12.8041C19.7721 12.6761 19.8801 12.4841 20.0961 12.0961L20.2921 11.7442Z" stroke="#2F2312" stroke-width="2.99989"/>
<path id="Vector_2" d="M35.9995 15.6982C35.9995 17.5366 35.6374 19.3571 34.9339 21.0555C34.2303 22.754 33.1991 24.2973 31.8992 25.5973C30.5992 26.8973 29.0559 27.9285 27.3574 28.632C25.6589 29.3355 23.8384 29.6976 22 29.6976C20.1616 29.6976 18.3411 29.3355 16.6426 28.632C14.9441 27.9285 13.4008 26.8973 12.1008 25.5973C10.8009 24.2973 9.76965 22.754 9.06611 21.0555C8.36257 19.3571 8.00046 17.5366 8.00046 15.6982C8.00046 11.9853 9.4754 8.42448 12.1008 5.79908C14.7263 3.17367 18.2871 1.69873 22 1.69873C25.7129 1.69873 29.2737 3.17367 31.8992 5.79908C34.5246 8.42448 35.9995 11.9853 35.9995 15.6982Z" stroke="#2F2312" stroke-width="2.99989"/>
<path id="Vector_3" d="M8.91243 21.6978L3.98459 26.7996C2.90463 27.9175 2.36464 28.4775 2.17665 28.9515C1.75066 30.0294 2.11665 31.2274 3.04262 31.7954C3.45061 32.0434 4.18458 32.1213 5.65254 32.2773C6.48251 32.3653 6.89649 32.4073 7.24248 32.5413C7.62932 32.6913 7.97898 32.9235 8.26731 33.2218C8.55563 33.5202 8.77574 33.8775 8.91243 34.2693C9.04042 34.6292 9.08242 35.0572 9.16842 35.9172C9.31642 37.4371 9.39241 38.1971 9.6324 38.6171C10.1804 39.5771 11.3383 39.953 12.3783 39.5131C12.8383 39.3211 13.3783 38.7631 14.4582 37.6431L22 29.8334L29.5418 37.6431C30.6217 38.7631 31.1617 39.3211 31.6217 39.5131C32.6617 39.953 33.8196 39.5771 34.3676 38.6171C34.6076 38.1971 34.6816 37.4371 34.8316 35.9172C34.9176 35.0572 34.9596 34.6292 35.0876 34.2693C35.3756 33.4653 35.9795 32.8393 36.7575 32.5413C37.1035 32.4073 37.5175 32.3653 38.3475 32.2773C39.8154 32.1213 40.5494 32.0434 40.9574 31.7954C41.8833 31.2274 42.2493 30.0294 41.8234 28.9515C41.6354 28.4775 41.0954 27.9175 40.0154 26.7996L35.0876 21.6978" stroke="#2F2312" stroke-width="2.99989"/>
</g>
</g>
</svg>
