<svg width="44" height="38" viewBox="0 0 44 38" fill="none" xmlns="http://www.w3.org/2000/svg">
<g id="Group 40">
<g id="Group 42">
<g id="Group">
<path id="Vector" d="M37.6202 25.0715H7.03217M37.6202 25.0715V9.99951C37.6202 6.22751 37.6202 4.34351 36.4482 3.17151C35.2782 1.99951 33.3922 1.99951 29.6202 1.99951H15.0322C11.2602 1.99951 9.37617 1.99951 8.20417 3.17151C7.03217 4.34351 7.03217 6.22751 7.03217 9.99951V25.0715M37.6202 25.0715L41.1082 28.6715L41.2842 28.8555C41.9257 29.5603 42.2945 30.471 42.3242 31.4235L42.3262 31.6775C42.3262 31.9775 42.3262 32.1255 42.3182 32.2515C42.2568 33.2233 41.8431 34.1394 41.1545 34.8279C40.466 35.5164 39.55 35.9302 38.5782 35.9915C38.387 35.9997 38.1955 36.0023 38.0042 35.9995H6.64817C6.34817 35.9995 6.20017 35.9995 6.07417 35.9915C5.10237 35.9302 4.18633 35.5164 3.4978 34.8279C2.80926 34.1394 2.39553 33.2233 2.33417 32.2515C2.32617 32.1255 2.32617 31.9755 2.32617 31.6795L2.32817 31.4255C2.35785 30.473 2.72665 29.5623 3.36817 28.8575L3.54417 28.6735L7.03217 25.0715M17.3262 30.9995H27.3262" stroke="#2F2312" stroke-width="3" stroke-linecap="round"/>
<path id="Vector_2" d="M23.826 7.49951C23.826 7.89734 23.668 8.27887 23.3866 8.56017C23.1053 8.84148 22.7238 8.99951 22.326 8.99951C21.9282 8.99951 21.5466 8.84148 21.2653 8.56017C20.984 8.27887 20.826 7.89734 20.826 7.49951C20.826 7.10169 20.984 6.72016 21.2653 6.43885C21.5466 6.15755 21.9282 5.99951 22.326 5.99951C22.7238 5.99951 23.1053 6.15755 23.3866 6.43885C23.668 6.72016 23.826 7.10169 23.826 7.49951Z" fill="#2F2312"/>
</g>
</g>
</g>
</svg>
