<svg width="44" height="40" viewBox="0 0 44 40" fill="none" xmlns="http://www.w3.org/2000/svg">
<g id="Group 57">
<g id="Group">
<path id="Vector" d="M17.566 2.99895C18.9516 2.34123 20.4662 2 22 2C23.5338 2 25.0484 2.34123 26.434 2.99895L39.816 9.27296C42.728 10.637 42.728 15.361 39.816 16.725L26.436 22.999C25.0501 23.657 23.5352 23.9984 22.001 23.9984C20.4668 23.9984 18.9519 23.657 17.566 22.999L4.184 16.725C1.272 15.361 1.272 10.637 4.184 9.27296L17.564 2.99895H17.566Z" stroke="#2F2312" stroke-width="3"/>
<path id="Vector_2" d="M2 12.999V23.999M36 18.999V29.2491C36 31.2651 34.994 33.1531 33.23 34.1291C30.292 35.7591 25.592 37.9991 22 37.9991C18.408 37.9991 13.708 35.7571 10.77 34.1311C9.008 33.1531 8 31.2651 8 29.2511V18.999" stroke="#2F2312" stroke-width="3" stroke-linecap="round"/>
</g>
</g>
</svg>
