<svg width="44" height="44" viewBox="0 0 44 44" fill="none" xmlns="http://www.w3.org/2000/svg">
<g id="Group 58">
<g id="Group">
<path id="Vector" d="M2 22C2 12.572 2 7.858 4.928 4.928C7.86 2 12.572 2 22 2C31.428 2 36.142 2 39.07 4.928C42 7.86 42 12.572 42 22C42 31.428 42 36.142 39.07 39.07C36.144 42 31.428 42 22 42C12.572 42 7.858 42 4.928 39.07C2 36.144 2 31.428 2 22Z" stroke="#2F2312" stroke-width="3"/>
<path id="Vector_2" d="M12 26L16.586 21.414C16.9611 21.0391 17.4697 20.8284 18 20.8284C18.5303 20.8284 19.0389 21.0391 19.414 21.414L22.586 24.586C22.9611 24.9609 23.4697 25.1716 24 25.1716C24.5303 25.1716 25.0389 24.9609 25.414 24.586L32 18M32 18V23M32 18H27" stroke="#2F2312" stroke-width="3" stroke-linecap="round" stroke-linejoin="round"/>
</g>
</g>
</svg>
