<svg width="10" height="10" viewBox="0 0 34 44" fill="none" xmlns="http://www.w3.org/2000/svg">
<g id="Group 51">
<g id="Group">
<path id="Vector" d="M12.0022 37.1998C12.0022 35.7718 12.0022 35.0598 11.9242 34.5858C11.6802 33.0599 11.6382 32.9619 10.6642 31.7619C10.3602 31.3879 9.24021 30.3859 7.00024 28.3779C4.73604 26.3528 3.14006 23.6879 2.42349 20.7359C1.70692 17.7839 1.90352 14.6839 2.98729 11.8461C4.07106 9.00827 5.99092 6.56638 8.49283 4.84353C10.9947 3.12067 13.9608 2.19806 16.9985 2.19775C20.0362 2.19745 23.0025 3.11947 25.5047 4.84183C28.007 6.56418 29.9273 9.00568 31.0116 11.8433C32.096 14.6809 32.2932 17.7809 31.5772 20.733C30.8612 23.6851 29.2658 26.3503 27.002 28.3759C24.76 30.3839 23.64 31.3879 23.338 31.7599C22.3641 32.9599 22.3221 33.0579 22.0761 34.5838C22.0001 35.0578 22.0001 35.7718 22.0001 37.1978H12.0002C12.0002 39.0678 12.0002 40.0018 12.4022 40.6978C12.6655 41.1538 13.0441 41.5325 13.5002 41.7958C14.1962 42.1978 15.1301 42.1978 17.0001 42.1978C18.8701 42.1978 19.8041 42.1978 20.5021 41.7978C20.9581 41.5345 21.3368 41.1558 21.6001 40.6998C22.0021 40.0038 22.0021 39.0698 22.0021 37.1998" stroke="#2F2312" stroke-width="2.99996"/>
<path id="Vector_2" d="M18.5721 15.1982L14.2861 21.1982H20.2861L16.0001 27.1981" stroke="#2F2312" stroke-width="2.99996" stroke-linecap="round" stroke-linejoin="round"/>
</g>
</g>
</svg>
