<svg viewBox="0 0 40 41" xmlns="http://www.w3.org/2000/svg">
<g id="Group 50">
<path id="Vector" d="M15.2649 13.7667L16.249 14.7565L15.263 13.7686L15.2649 13.7667ZM20.6935 21.3981C20.827 21.2697 20.9336 21.1159 21.0071 20.9459C21.0806 20.7759 21.1195 20.5929 21.1216 20.4076C21.1236 20.2224 21.0887 20.0386 21.019 19.867C20.9492 19.6953 20.846 19.5393 20.7153 19.408C20.5846 19.2767 20.4291 19.1728 20.2578 19.1022C20.0865 19.0316 19.9029 18.9959 19.7176 18.9971C19.5324 18.9982 19.3492 19.0363 19.1788 19.1089C19.0084 19.1816 18.8542 19.2875 18.7252 19.4205L20.6935 21.3981ZM12.0185 17.002L13.0045 16.016V16.0122L12.0185 17.002ZM18.9559 10.5129C19.11 10.6171 19.2834 10.6893 19.4658 10.7255C19.6483 10.7617 19.8361 10.761 20.0183 10.7235C20.2005 10.686 20.3734 10.6124 20.5267 10.5072C20.6801 10.4019 20.8108 10.267 20.9113 10.1105C21.0118 9.95396 21.0799 9.77891 21.1118 9.59565C21.1436 9.41239 21.1385 9.22461 21.0967 9.04336C21.0549 8.86211 20.9773 8.69104 20.8684 8.54022C20.7596 8.38939 20.6216 8.26186 20.4628 8.16512L18.9559 10.5129ZM23.2255 28.2666L22.2395 29.2545C22.261 29.2763 22.2834 29.2974 22.3064 29.3177L23.2255 28.2666ZM31.9935 19.6512C31.8962 19.4922 31.7681 19.3543 31.6168 19.2457C31.4654 19.137 31.2938 19.0598 31.112 19.0185C30.9303 18.9773 30.7422 18.9728 30.5587 19.0055C30.3752 19.0381 30.2002 19.1072 30.0438 19.2086C29.8875 19.31 29.7531 19.4417 29.6485 19.5959C29.5439 19.7501 29.4712 19.9237 29.4348 20.1065C29.3983 20.2892 29.3989 20.4774 29.4364 20.6599C29.4739 20.8425 29.5476 21.0156 29.6531 21.1692L31.9935 19.6512ZM31.48 21.4241L30.3098 22.1832L31.4818 21.4241H31.48ZM26.0979 31.4721L24.8756 32.1437L26.0979 31.4739V31.4721ZM24.0719 29.0089L25.0579 28.0192L25.0244 27.9876L24.991 27.9597L24.0719 29.0089ZM8.98048 22.8343C9.23477 22.5713 9.37558 22.2189 9.37257 21.853C9.36957 21.4872 9.22299 21.1371 8.96441 20.8783C8.70584 20.6195 8.35595 20.4726 7.99011 20.4692C7.62427 20.4659 7.27175 20.6064 7.00847 20.8604L8.98048 22.8343ZM3.26166 22.8343C3.51595 22.5713 3.65675 22.2189 3.65375 21.853C3.65074 21.4872 3.50416 21.1371 3.24559 20.8783C2.98701 20.6195 2.63712 20.4726 2.27128 20.4692C1.90544 20.4659 1.55292 20.6064 1.28965 20.8604L3.26166 22.8343ZM19.2684 33.1967C19.4017 33.068 19.5081 32.9141 19.5813 32.7439C19.6545 32.5737 19.6931 32.3906 19.6948 32.2054C19.6965 32.0201 19.6613 31.8364 19.5912 31.6648C19.5211 31.4933 19.4176 31.3375 19.2866 31.2064C19.1557 31.0754 19 30.9717 18.8285 30.9015C18.6571 30.8312 18.4734 30.7958 18.2881 30.7973C18.1028 30.7989 17.9197 30.8373 17.7495 30.9103C17.5792 30.9834 17.4252 31.0896 17.2964 31.2228L19.2684 33.1967ZM19.2684 38.9118C19.4017 38.7831 19.5081 38.6292 19.5813 38.459C19.6545 38.2888 19.6931 38.1058 19.6948 37.9205C19.6965 37.7352 19.6613 37.5515 19.5912 37.38C19.5211 37.2085 19.4176 37.0526 19.2866 36.9216C19.1557 36.7905 19 36.6868 18.8285 36.6166C18.6571 36.5463 18.4734 36.5109 18.2881 36.5125C18.1028 36.514 17.9197 36.5524 17.7495 36.6254C17.5792 36.6985 17.4252 36.8047 17.2964 36.9379L19.2684 38.9118ZM17.4583 29.8461C17.7047 29.5816 17.8389 29.2318 17.8325 28.8703C17.8261 28.5088 17.6797 28.1639 17.4241 27.9083C17.1684 27.6526 16.8235 27.5062 16.4621 27.4998C16.1006 27.4934 15.7508 27.6276 15.4862 27.8741L17.4583 29.8461ZM11.572 31.7828C11.3177 32.0458 11.1769 32.3982 11.1799 32.764C11.1829 33.1299 11.3295 33.4799 11.5881 33.7387C11.8466 33.9975 12.1965 34.1445 12.5624 34.1478C12.9282 34.1512 13.2807 34.0107 13.544 33.7566L11.572 31.7846V31.7828ZM12.292 24.6872C12.4291 24.5595 12.539 24.4055 12.6153 24.2343C12.6915 24.0631 12.7325 23.8784 12.7358 23.691C12.7391 23.5037 12.7047 23.3176 12.6345 23.1439C12.5643 22.9701 12.4599 22.8123 12.3274 22.6798C12.1949 22.5473 12.0371 22.4429 11.8633 22.3727C11.6896 22.3025 11.5035 22.268 11.3162 22.2713C11.1288 22.2747 10.944 22.3157 10.7729 22.3919C10.6017 22.4682 10.4477 22.5781 10.32 22.7152L12.292 24.6872ZM6.38152 26.6537C6.24832 26.7824 6.1421 26.9365 6.06905 27.1067C5.99601 27.277 5.95761 27.4601 5.95608 27.6454C5.95456 27.8306 5.98995 28.0143 6.06019 28.1858C6.13043 28.3572 6.2341 28.513 6.36517 28.6439C6.49624 28.7749 6.65208 28.8784 6.82358 28.9485C6.99509 29.0185 7.17884 29.0538 7.3641 29.0521C7.54937 29.0504 7.73244 29.0118 7.90263 28.9386C8.07283 28.8654 8.22674 28.759 8.35539 28.6257L6.38338 26.6537H6.38152ZM11.5534 30.5791C11.6915 30.4528 11.8028 30.3 11.8807 30.1298C11.9586 29.9596 12.0014 29.7755 12.0066 29.5884C12.0119 29.4014 11.9794 29.2151 11.9112 29.0408C11.843 28.8666 11.7404 28.7078 11.6096 28.5739C11.4788 28.4401 11.3224 28.334 11.1497 28.2618C10.977 28.1897 10.7915 28.153 10.6044 28.1541C10.4172 28.1551 10.2322 28.1937 10.0603 28.2677C9.88836 28.3417 9.73309 28.4495 9.60371 28.5848L11.5534 30.5791ZM6.42245 31.6953C6.28861 31.8228 6.18142 31.9756 6.10711 32.1448C6.03281 32.314 5.99287 32.4963 5.98961 32.6811C5.98635 32.8659 6.01984 33.0495 6.08813 33.2213C6.15642 33.393 6.25815 33.5495 6.38742 33.6816C6.51669 33.8137 6.67091 33.9188 6.84114 33.9908C7.01136 34.0628 7.1942 34.1003 7.37902 34.101C7.56385 34.1018 7.74698 34.0658 7.91779 33.9952C8.08859 33.9246 8.24366 33.8207 8.374 33.6897L6.42245 31.6953ZM34.8566 14.4216L25.3947 23.8445L27.3648 25.8221L36.8267 16.4011L34.8566 14.4216ZM18.4703 23.8445L16.249 21.6325L14.2789 23.6082L16.502 25.8221L18.4703 23.8445ZM16.249 14.7565L25.7109 5.3336L23.7426 3.35601L14.2789 12.7789L16.249 14.7565ZM31.3981 2.98951H32.319V0.198928H31.3981V2.98951ZM37.21 7.85443L37.2081 8.7716H40.0005L39.9987 7.85443H37.21ZM32.3153 2.98951C33.8371 2.98951 34.838 2.99323 35.5803 3.09183C36.2835 3.18485 36.5402 3.34299 36.6965 3.50112L38.6685 1.52166C37.9058 0.762626 36.9607 0.461242 35.9524 0.325434C34.9812 0.195207 33.7608 0.198928 32.319 0.198928L32.3153 2.98951ZM39.9987 7.85443C39.9987 6.41821 40.0024 5.20151 39.8703 4.23411C39.7345 3.22578 39.4331 2.28256 38.6685 1.52166L36.6984 3.49926C36.8546 3.65553 37.0109 3.90854 37.1058 4.60619C37.2044 5.34477 37.21 6.34007 37.21 7.85443H39.9987ZM16.249 21.6325C15.1718 20.5628 14.4668 19.8558 14.0147 19.2642C13.5849 18.7042 13.5161 18.414 13.5161 18.1945H10.7255C10.7255 19.2735 11.1795 20.1535 11.799 20.9609C12.3943 21.7367 13.2594 22.5924 14.2789 23.6082L16.249 21.6325ZM16.502 25.8239C17.5215 26.8397 18.3847 27.7029 19.1624 28.2945C19.9735 28.9103 20.8553 29.3605 21.9325 29.3605V26.57C21.7074 26.57 21.4134 26.4993 20.8516 26.0714C20.2563 25.6212 19.5475 24.9179 18.4703 23.8463L16.502 25.8239ZM36.8267 16.4029C38.1067 15.1267 39.0406 14.23 39.5317 13.0505L36.957 11.9789C36.7281 12.5259 36.3002 12.9872 34.8566 14.4253L36.8267 16.4029ZM37.2081 8.77346C37.2081 10.8069 37.1839 11.4338 36.957 11.9789L39.5317 13.0505C40.021 11.871 39.9987 10.578 39.9987 8.77346H37.2081ZM25.7109 5.3336C27.1546 3.89552 27.6197 3.46949 28.1704 3.24066L27.1062 0.664025C25.923 1.15145 25.0244 2.07978 23.7426 3.35601L25.7109 5.3336ZM31.3963 0.198928C29.5824 0.198928 28.2876 0.174742 27.1062 0.662164L28.1704 3.24066C28.721 3.0137 29.3554 2.98951 31.3963 2.98951V0.198928ZM17.3578 24.7189L20.6916 21.3981L18.7252 19.4205L15.3895 22.7394L17.3578 24.717V24.7189ZM20.4628 8.16512L19.4414 7.51212L17.9364 9.85807L18.9521 10.5129L20.4591 8.16512H20.4628ZM19.4414 7.51212C18.4387 6.86656 17.6201 6.34007 16.9132 5.95869C16.1895 5.56801 15.4993 5.28709 14.7328 5.17361L14.3235 7.93443C14.6509 7.9828 15.0193 8.1093 15.5904 8.41627C16.1802 8.73253 16.8946 9.19019 17.9364 9.85807L19.4414 7.51212ZM7.58147 12.3194C8.49306 11.4115 9.4679 10.4404 10.3441 9.64413C10.7795 9.246 11.1757 8.90741 11.5125 8.64696C11.8715 8.37162 12.0855 8.24697 12.1729 8.21163L11.1032 5.63313C10.6404 5.84531 10.206 6.11469 9.81021 6.43495C9.3465 6.79928 8.89718 7.18157 8.46329 7.58095C7.5331 8.42929 6.51361 9.44506 5.61318 10.3418L7.58147 12.3194ZM14.7347 5.17361C13.5049 4.99566 12.2499 5.15446 11.1032 5.63313L12.1729 8.21163C12.8526 7.92571 13.5971 7.82928 14.3272 7.93257L14.7347 5.17361ZM6.50245 14.6542L7.11824 14.896L8.14145 12.3008L7.52938 12.0589L6.50245 14.6542ZM9.4772 16.442L11.0325 17.9898L13.0008 16.0141L11.4455 14.4644L9.4772 16.442ZM7.11637 14.8979L7.29683 14.9686L8.35911 12.3882L8.14145 12.3008L7.11637 14.896V14.8979ZM11.4455 14.4644L11.2799 14.3007L9.33954 16.3043L9.4772 16.442L11.4455 14.4644ZM7.29683 14.9686C8.05773 15.2811 8.75165 15.735 9.33954 16.3043L11.2799 14.3007C10.4364 13.4837 9.4452 12.8347 8.35911 12.3882L7.29683 14.9686ZM5.61318 10.3418C5.30335 10.65 5.0752 11.0306 4.94935 11.4491C4.8235 11.8677 4.80391 12.311 4.89236 12.739C4.9808 13.167 5.17449 13.5662 5.45593 13.9006C5.73736 14.235 6.09582 14.494 6.50245 14.6542L7.52938 12.0589C7.55347 12.0692 7.57653 12.0852 7.59298 12.1056C7.60943 12.126 7.62063 12.1501 7.62559 12.1758C7.63055 12.2015 7.62912 12.228 7.62143 12.2531C7.61373 12.2781 7.60001 12.3009 7.58147 12.3194L5.61318 10.3418ZM29.6549 21.1692L30.3098 22.1832L32.6539 20.6651L31.9935 19.6512L29.6549 21.1692ZM27.8411 32.4767L27.7053 32.6125L29.6736 34.5901L29.8094 34.4543L27.8411 32.4767ZM30.3098 22.1832C30.9795 23.2175 31.4428 23.9282 31.7609 24.5142C32.0697 25.0835 32.1944 25.4481 32.2446 25.7718L35.0036 25.3607C34.8882 24.5924 34.6036 23.904 34.2129 23.184C33.8315 22.479 33.3013 21.6641 32.6539 20.6651L30.3098 22.1832ZM29.8094 34.4543C30.7536 33.5279 31.6778 32.5814 32.5813 31.6153C33.0092 31.1521 33.4055 30.6944 33.7348 30.274C34.0436 29.874 34.3543 29.4238 34.5385 28.9847L31.9655 27.9076C31.9283 27.9931 31.8074 28.2052 31.5284 28.5624C31.2679 28.8973 30.9275 29.2917 30.5275 29.727C29.7275 30.5977 28.7527 31.5688 27.8411 32.4767L29.8094 34.4543ZM32.2427 25.7718C32.3468 26.4959 32.2521 27.2346 31.9655 27.9076L34.5385 28.9847C35.0203 27.8415 35.1824 26.5884 35.0036 25.3607L32.2427 25.77V25.7718ZM24.9928 27.9597L24.1463 27.2174L22.3083 29.3177L23.1548 30.0582L24.9928 27.9597ZM28.1629 32.7223C27.8169 31.8535 27.6048 31.3121 27.3239 30.8005L24.8756 32.1437C25.0561 32.473 25.2012 32.8283 25.5714 33.7548L28.1629 32.7223ZM23.0896 29.9968C23.7966 30.7037 24.0682 30.9754 24.2989 31.2712L26.4942 29.5484C26.1351 29.0889 25.7202 28.6796 25.0579 28.0192L23.0896 29.9968ZM27.3239 30.8005C27.0823 30.3614 26.8036 29.9426 26.4942 29.5484L24.3008 31.2712C24.5166 31.5465 24.71 31.8386 24.8775 32.1455L27.3239 30.8005ZM29.8391 12.7789C29.5098 13.1055 29.0648 13.2888 28.601 13.2888C28.1372 13.2888 27.6922 13.1055 27.363 12.7789L25.3928 14.7565C26.2451 15.604 27.3982 16.0797 28.6001 16.0797C29.802 16.0797 30.9551 15.604 31.8074 14.7565L29.841 12.7789H29.8391ZM27.363 12.7789C27.2016 12.6184 27.0736 12.4277 26.9862 12.2176C26.8989 12.0075 26.8539 11.7823 26.8539 11.5547C26.8539 11.3272 26.8989 11.1019 26.9862 10.8919C27.0736 10.6818 27.2016 10.491 27.363 10.3306L25.3928 8.35301C24.971 8.77274 24.6364 9.27166 24.408 9.82111C24.1796 10.3706 24.0621 10.9597 24.0621 11.5547C24.0621 12.1498 24.1796 12.7389 24.408 13.2884C24.6364 13.8378 24.971 14.3368 25.3928 14.7565L27.363 12.7789ZM27.363 10.3306C27.6922 10.004 28.1372 9.82071 28.601 9.82071C29.0648 9.82071 29.5098 10.004 29.8391 10.3306L31.8074 8.35301C30.9551 7.50551 29.802 7.02979 28.6001 7.02979C27.3982 7.02979 26.2451 7.50551 25.3928 8.35301L27.363 10.3306ZM29.8391 10.3306C30.0004 10.491 30.1285 10.6818 30.2158 10.8919C30.3032 11.1019 30.3482 11.3272 30.3482 11.5547C30.3482 11.7823 30.3032 12.0075 30.2158 12.2176C30.1285 12.4277 30.0004 12.6184 29.8391 12.7789L31.8074 14.7565C32.2292 14.3368 32.5638 13.8378 32.7922 13.2884C33.0206 12.7389 33.1381 12.1498 33.1381 11.5547C33.1381 10.9597 33.0206 10.3706 32.7922 9.82111C32.5638 9.27166 32.2292 8.77274 31.8074 8.35301L29.841 10.3306H29.8391ZM27.7053 32.6125C27.7367 32.581 27.7752 32.5574 27.8176 32.5438C27.86 32.5303 27.9051 32.527 27.949 32.5344C28.0197 32.5492 28.1164 32.6088 28.1629 32.7223L25.5714 33.7548C26.243 35.4366 28.4178 35.8384 29.6736 34.5901L27.7053 32.6125ZM25.3928 23.8463C24.5649 24.6724 23.9473 25.2863 23.4171 25.7439C22.8869 26.2016 22.5427 26.41 22.2915 26.503L23.2534 29.1224C23.977 28.8564 24.6207 28.3894 25.2403 27.8573C25.8616 27.3178 26.5593 26.6239 27.3611 25.8239L25.3928 23.8463ZM22.2915 26.503C22.177 26.5471 22.0553 26.5698 21.9325 26.57V29.3605C22.392 29.3605 22.8311 29.2787 23.2534 29.1224L22.2897 26.503H22.2915ZM24.2133 27.2806L23.7575 26.8248L21.7855 28.8006L22.2395 29.2545L24.2133 27.2806ZM14.2789 12.7789C13.4956 13.5602 12.811 14.2393 12.2808 14.8458C11.7506 15.4485 11.2855 16.0736 11.0083 16.7657L13.5942 17.8075C13.6984 17.5508 13.9198 17.2085 14.3775 16.6857C14.8333 16.1667 15.4397 15.562 16.249 14.7565L14.2789 12.7789ZM11.0083 16.7657C10.823 17.2193 10.7258 17.7045 10.7255 18.1945H13.5161C13.5161 18.0736 13.5347 17.9526 13.5942 17.8075L11.0083 16.7657ZM11.0325 17.9898L11.3153 18.2745L13.2873 16.3006L13.0026 16.0141L11.0325 17.9898ZM7.01219 20.8604L3.8607 24.0045L5.83457 25.9765L8.98048 22.8343L7.01219 20.8604ZM2.97516 23.1208L3.26166 22.8343L1.28965 20.8604L1.00315 21.1451L2.97516 23.1208ZM2.97516 24.0045C2.91694 23.9466 2.87074 23.8777 2.83922 23.8019C2.80769 23.7261 2.79146 23.6447 2.79146 23.5626C2.79146 23.4805 2.80769 23.3992 2.83922 23.3234C2.87074 23.2476 2.91694 23.1787 2.97516 23.1208L1.00315 21.1451C0.685333 21.4622 0.433186 21.8388 0.261145 22.2535C0.0891049 22.6682 0.000549316 23.1127 0.000549316 23.5617C0.000549316 24.0107 0.0891049 24.4552 0.261145 24.8699C0.433186 25.2846 0.685333 25.6612 1.00315 25.9783L2.97516 24.0045ZM3.8607 24.0045C3.74285 24.1218 3.58517 24.1877 3.41886 24.1877C3.25255 24.1877 3.093 24.1218 2.97516 24.0045L1.00315 25.9765C2.33704 27.3104 4.50067 27.3104 5.83457 25.9765L3.8607 24.0045ZM17.2945 31.2228L14.1468 34.3668L16.1188 36.3389L19.2666 33.1948L17.2945 31.2228ZM18.9801 39.1983L19.2666 38.9118L17.2945 36.9379L17.008 37.2225L18.9801 39.1983ZM14.1468 39.1983C14.7884 39.8379 15.6574 40.197 16.5634 40.197C17.4694 40.197 18.3384 39.8379 18.9801 39.1983L17.008 37.2225C16.8901 37.3405 16.7302 37.4067 16.5634 37.4067C16.3966 37.4067 16.2367 37.3405 16.1188 37.2225L14.1468 39.1983ZM14.1468 34.3668C13.829 34.6839 13.5768 35.0588 13.4048 35.4734C13.2327 35.8881 13.1442 36.3327 13.1442 36.7816C13.1442 37.2306 13.2327 37.6751 13.4048 38.0898C13.5768 38.5045 13.829 38.8812 14.1468 39.1983L16.1188 37.2225C16.0606 37.1646 16.0144 37.0958 15.9828 37.02C15.9513 36.9441 15.9351 36.8628 15.9351 36.7807C15.9351 36.6986 15.9513 36.6173 15.9828 36.5414C16.0144 36.4656 16.0606 36.3968 16.1188 36.3389L14.1468 34.3668ZM15.4825 27.8722L11.572 31.7828L13.544 33.7566L17.4583 29.8461L15.4844 27.8741L15.4825 27.8722ZM10.32 22.7152L6.38152 26.6537L8.35539 28.6257L12.292 24.6872L10.32 22.7152ZM9.60371 28.5866L6.42245 31.6953L8.374 33.6897L11.5553 30.5809L9.60185 28.5866H9.60371Z" fill="#2F2312"/>
</g>
</svg>
